<svg width="119" height="24" viewBox="0 0 119 24" fill="none" xmlns="http://www.w3.org/2000/svg">
<path fill-rule="evenodd" clip-rule="evenodd" d="M0 4.7999C0 4.30285 0.402944 3.8999 0.9 3.8999H16.8999C17.397 3.8999 17.7999 4.30285 17.7999 4.7999V8.7999V9.6999H16.9999V19.1999C16.9999 19.697 16.597 20.0999 16.0999 20.0999H1.69992C1.20286 20.0999 0.799919 19.697 0.799919 19.1999V9.6999H0V8.7999V4.7999ZM2.59992 9.6999V18.2999H15.1999V9.6999H2.59992ZM15.9999 7.8999H1.8V5.6999H15.9999V7.8999ZM10.8999 12.0999H6.89992V10.2999H10.8999V12.0999Z" fill="white"/>
<path d="M23.1476 19V5.56H28.0148C28.9684 5.56 29.81 5.7264 30.5396 6.0592C31.2756 6.3856 31.8516 6.8592 32.2676 7.48C32.6836 8.0944 32.8916 8.8336 32.8916 9.6976C32.8916 10.5872 32.6996 11.3392 32.3156 11.9536C31.9316 12.5616 31.3716 13.0256 30.6356 13.3456C29.906 13.6592 29.0164 13.816 27.9668 13.816H25.298V19H23.1476ZM25.298 11.9728H27.9956C28.866 11.9728 29.5412 11.7904 30.0212 11.4256C30.5012 11.0544 30.7412 10.4944 30.7412 9.7456C30.7412 9.0032 30.4948 8.4336 30.002 8.0368C29.5092 7.64 28.8468 7.4416 28.0148 7.4416H25.298V11.9728ZM34.0779 19V9.496H36.1899V10.8112C36.5483 10.216 36.9835 9.8 37.4955 9.5632C38.0075 9.32 38.5579 9.1984 39.1467 9.1984C39.3387 9.1984 39.5211 9.208 39.6939 9.2272C39.8667 9.2464 40.0331 9.2752 40.1931 9.3136L39.9147 11.4928C39.7227 11.4352 39.5275 11.3904 39.3291 11.3584C39.1307 11.3264 38.9323 11.3104 38.7339 11.3104C37.9979 11.3104 37.3899 11.5376 36.9099 11.992C36.4299 12.44 36.1899 13.0512 36.1899 13.8256V19H34.0779ZM45.135 19.288C44.143 19.288 43.2566 19.0608 42.4758 18.6064C41.7014 18.1456 41.0934 17.5344 40.6518 16.7728C40.2102 16.0048 39.9894 15.1632 39.9894 14.248C39.9894 13.5696 40.1142 12.9296 40.3638 12.328C40.6198 11.72 40.9782 11.1824 41.439 10.7152C41.9062 10.248 42.4534 9.88 43.0806 9.6112C43.7078 9.3424 44.3958 9.208 45.1446 9.208C46.1366 9.208 47.0198 9.4384 47.7942 9.8992C48.575 10.3536 49.1862 10.9648 49.6278 11.7328C50.0694 12.4944 50.2902 13.3328 50.2902 14.248C50.2902 14.92 50.1622 15.56 49.9062 16.168C49.6566 16.776 49.3014 17.3136 48.8406 17.7808C48.3798 18.248 47.8358 18.616 47.2086 18.8848C46.5814 19.1536 45.8902 19.288 45.135 19.288ZM45.135 17.416C45.7238 17.416 46.2454 17.288 46.6998 17.032C47.1606 16.7696 47.5222 16.4016 47.7846 15.928C48.047 15.4544 48.1782 14.8944 48.1782 14.248C48.1782 13.6016 48.047 13.0416 47.7846 12.568C47.5222 12.088 47.1606 11.72 46.6998 11.464C46.2454 11.208 45.7238 11.08 45.135 11.08C44.5462 11.08 44.0214 11.208 43.5606 11.464C43.1062 11.72 42.7478 12.088 42.4854 12.568C42.2294 13.0416 42.1014 13.6016 42.1014 14.248C42.1014 14.8944 42.2326 15.4544 42.495 15.928C42.7574 16.4016 43.1158 16.7696 43.5702 17.032C44.031 17.288 44.5526 17.416 45.135 17.416ZM51.4517 19V9.496H53.5637V10.8016C53.8197 10.4304 54.1141 10.1296 54.4469 9.8992C54.7797 9.6624 55.1317 9.4896 55.5029 9.3808C55.8741 9.2656 56.2517 9.208 56.6357 9.208C57.4101 9.208 58.0533 9.3776 58.5653 9.7168C59.0837 10.056 59.4485 10.4912 59.6597 11.0224C60.1333 10.3312 60.6837 9.8576 61.3109 9.6016C61.9381 9.3392 62.5685 9.208 63.2021 9.208C64.0789 9.208 64.7797 9.3808 65.3045 9.7264C65.8293 10.072 66.2069 10.5168 66.4373 11.0608C66.6741 11.6048 66.7925 12.1648 66.7925 12.7408V19H64.6805V13.3552C64.6805 12.696 64.4981 12.1648 64.1333 11.7616C63.7749 11.352 63.2501 11.1472 62.5589 11.1472C62.1045 11.1472 61.6981 11.2464 61.3397 11.4448C60.9813 11.6432 60.6965 11.9184 60.4853 12.2704C60.2805 12.616 60.1781 13.016 60.1781 13.4704V19H58.0661V13.3552C58.0661 12.696 57.8869 12.1648 57.5285 11.7616C57.1701 11.352 56.6421 11.1472 55.9445 11.1472C55.4965 11.1472 55.0901 11.2464 54.7253 11.4448C54.3669 11.6432 54.0821 11.9184 53.8709 12.2704C53.6661 12.616 53.5637 13.016 53.5637 13.4704V19H51.4517ZM68.6792 23.032V9.496H70.58V10.8304C70.9576 10.3504 71.4408 9.96 72.0296 9.6592C72.6184 9.3584 73.3448 9.208 74.2088 9.208C75.1368 9.208 75.9592 9.4288 76.676 9.8704C77.3992 10.3056 77.9624 10.904 78.3656 11.6656C78.7688 12.4208 78.9704 13.2816 78.9704 14.248C78.9704 14.9456 78.8552 15.6016 78.6248 16.216C78.3944 16.824 78.0648 17.3584 77.636 17.8192C77.2136 18.28 76.708 18.6416 76.1192 18.904C75.5368 19.16 74.8904 19.288 74.18 19.288C73.4376 19.288 72.7848 19.1536 72.2216 18.8848C71.6584 18.616 71.1784 18.2544 70.7816 17.8V23.032H68.6792ZM73.8248 17.416C74.4136 17.416 74.9352 17.288 75.3896 17.032C75.8504 16.7696 76.2088 16.4016 76.4648 15.928C76.7272 15.4544 76.8584 14.8944 76.8584 14.248C76.8584 13.6016 76.7272 13.0416 76.4648 12.568C76.2024 12.088 75.8408 11.72 75.38 11.464C74.9256 11.208 74.4072 11.08 73.8248 11.08C73.236 11.08 72.7112 11.208 72.2504 11.464C71.796 11.72 71.4376 12.088 71.1752 12.568C70.9128 13.0416 70.7816 13.6016 70.7816 14.248C70.7816 14.8944 70.9128 15.4544 71.1752 15.928C71.4376 16.4016 71.796 16.7696 72.2504 17.032C72.7112 17.288 73.236 17.416 73.8248 17.416ZM84.0315 19.288C83.1035 19.288 82.3611 19.0192 81.8043 18.4816C81.2475 17.944 80.9691 17.1216 80.9691 16.0144V6.7216H83.0811V9.496H85.7211V11.2432H83.0811V15.5536C83.0811 16.2192 83.2059 16.6896 83.4555 16.9648C83.7115 17.2336 84.0699 17.368 84.5307 17.368C84.7547 17.368 84.9659 17.3424 85.1643 17.2912C85.3627 17.24 85.5419 17.1728 85.7019 17.0896L86.0763 18.7984C85.8011 18.9392 85.4843 19.0544 85.1259 19.144C84.7739 19.24 84.4091 19.288 84.0315 19.288ZM78.8859 11.2432V9.496H81.2475V11.2432H78.8859ZM87.6063 19V5.56H92.2239C93.5103 5.56 94.5503 5.848 95.3439 6.424C96.1375 6.9936 96.5343 7.8352 96.5343 8.9488C96.5343 9.3776 96.4319 9.784 96.2271 10.168C96.0287 10.5456 95.7695 10.8784 95.4495 11.1664C95.1295 11.4544 94.7967 11.6656 94.4511 11.8C95.1807 12.024 95.7887 12.4336 96.2751 13.0288C96.7679 13.624 97.0143 14.3568 97.0143 15.2272C97.0143 15.9632 96.8287 16.616 96.4575 17.1856C96.0863 17.7488 95.5583 18.1936 94.8735 18.52C94.1887 18.84 93.3759 19 92.4351 19H87.6063ZM89.7567 17.3104H92.0703C92.9919 17.3104 93.6767 17.1312 94.1247 16.7728C94.5727 16.408 94.7967 15.8608 94.7967 15.1312C94.7967 14.408 94.5695 13.8576 94.1151 13.48C93.6671 13.1024 92.9727 12.9136 92.0319 12.9136H89.7567V17.3104ZM89.7567 11.3008H91.8879C92.4063 11.3008 92.8543 11.2176 93.2319 11.0512C93.6095 10.8848 93.9039 10.6448 94.1151 10.3312C94.3263 10.0176 94.4319 9.64 94.4319 9.1984C94.4319 8.5712 94.2079 8.0912 93.7599 7.7584C93.3183 7.4192 92.6847 7.2496 91.8591 7.2496H89.7567V11.3008ZM102.866 19.288C101.874 19.288 100.988 19.0608 100.207 18.6064C99.4327 18.1456 98.8247 17.5344 98.3831 16.7728C97.9415 16.0048 97.7207 15.1632 97.7207 14.248C97.7207 13.5696 97.8455 12.9296 98.0951 12.328C98.3511 11.72 98.7095 11.1824 99.1703 10.7152C99.6375 10.248 100.185 9.88 100.812 9.6112C101.439 9.3424 102.127 9.208 102.876 9.208C103.868 9.208 104.751 9.4384 105.525 9.8992C106.306 10.3536 106.917 10.9648 107.359 11.7328C107.801 12.4944 108.021 13.3328 108.021 14.248C108.021 14.92 107.893 15.56 107.637 16.168C107.388 16.776 107.033 17.3136 106.572 17.7808C106.111 18.248 105.567 18.616 104.94 18.8848C104.313 19.1536 103.621 19.288 102.866 19.288ZM102.866 17.416C103.455 17.416 103.977 17.288 104.431 17.032C104.892 16.7696 105.253 16.4016 105.516 15.928C105.778 15.4544 105.909 14.8944 105.909 14.248C105.909 13.6016 105.778 13.0416 105.516 12.568C105.253 12.088 104.892 11.72 104.431 11.464C103.977 11.208 103.455 11.08 102.866 11.08C102.277 11.08 101.753 11.208 101.292 11.464C100.837 11.72 100.479 12.088 100.217 12.568C99.9607 13.0416 99.8327 13.6016 99.8327 14.248C99.8327 14.8944 99.9639 15.4544 100.226 15.928C100.489 16.4016 100.847 16.7696 101.301 17.032C101.762 17.288 102.284 17.416 102.866 17.416ZM107.871 19.0096L111.308 14.2288L108.072 9.496H110.732L112.757 12.712L114.716 9.496H117.308L114.168 14.1712L117.576 19H114.869L112.68 15.6592L110.463 18.9808L107.871 19.0096Z" fill="white"/>
</svg>
